<?xml version="1.0" standalone="no"?>
<!DOCTYPE svg PUBLIC "-//W3C//DTD SVG 20010904//EN"
 "http://www.w3.org/TR/2001/REC-SVG-20010904/DTD/svg10.dtd">
<svg version="1.0" xmlns="http://www.w3.org/2000/svg"
 width="920.000000pt" height="920.000000pt" viewBox="0 0 920.000000 920.000000"
 preserveAspectRatio="xMidYMid meet">
<metadata>
Created by potrace 1.14, written by Peter Selinger 2001-2017
</metadata>
<g transform="translate(0.000000,920.000000) scale(0.100000,-0.100000)"
fill="#000000" stroke="none">
<path d="M4375 9074 c-845 -54 -1614 -312 -2286 -766 -407 -274 -777 -625
-1076 -1019 -351 -463 -620 -1022 -763 -1584 -183 -726 -183 -1484 0 -2210
269 -1063 940 -2005 1865 -2622 1286 -857 2938 -990 4354 -351 1131 510 2011
1480 2405 2649 274 815 308 1697 96 2534 -164 646 -480 1258 -919 1780 -113
135 -361 384 -495 499 -714 610 -1555 972 -2486 1071 -141 15 -573 27 -695 19z
m745 -344 c206 -27 344 -54 525 -100 1530 -393 2713 -1647 3019 -3200 57 -292
70 -439 70 -800 0 -361 -13 -508 -70 -800 -309 -1567 -1513 -2831 -3059 -3210
-361 -89 -587 -115 -995 -115 -410 0 -638 27 -999 116 -1357 337 -2457 1346
-2909 2671 -98 286 -158 552 -199 878 -25 206 -25 714 0 920 27 212 53 354 99
540 262 1057 937 1971 1876 2539 504 305 1067 496 1662 565 202 24 212 24 530
20 228 -2 330 -7 450 -24z"/>
<path d="M4603 8213 c-4 -38 -7 -159 -5 -270 4 -276 -3 -289 -166 -318 -42 -7
-105 -21 -139 -31 l-63 -17 0 -88 c0 -163 -23 -187 -277 -285 -233 -90 -268
-116 -441 -333 -64 -80 -139 -170 -167 -200 -66 -71 -395 -360 -610 -535 -215
-176 -263 -221 -286 -271 -21 -46 -24 -110 -8 -165 9 -30 8 -56 -4 -121 -22
-120 -7 -202 61 -332 72 -139 164 -209 344 -261 116 -33 198 -39 297 -22 140
25 255 90 414 235 174 158 281 179 511 101 178 -60 307 -83 471 -84 89 -1 172
4 204 12 30 7 55 11 57 10 1 -2 -99 -109 -223 -238 -348 -363 -558 -614 -725
-870 -287 -438 -421 -784 -435 -1126 -5 -115 8 -322 23 -376 4 -15 -1 -18 -32
-18 -52 0 -114 -33 -143 -75 -16 -24 -25 -54 -29 -100 -4 -60 -6 -65 -29 -65
-32 0 -93 -26 -122 -53 -13 -12 -32 -40 -42 -62 -17 -37 -19 -72 -19 -438 l0
-397 1828 2 1827 3 0 400 c0 394 0 401 -22 442 -32 59 -104 103 -169 103 -22
0 -24 4 -24 55 0 72 -19 116 -66 151 -31 24 -48 29 -110 32 l-72 4 -4 72 c-6
124 10 224 81 511 78 310 149 566 246 875 122 393 181 626 216 864 77 525 31
958 -150 1417 -180 459 -445 801 -806 1041 -119 79 -360 196 -513 249 -68 23
-141 55 -163 71 -22 16 -67 70 -103 125 -116 176 -233 308 -363 411 l-41 32
-9 -67z"/>
</g>
</svg>
